<svg version="1.1" xmlns="http://www.w3.org/2000/svg" xmlns:xlink="http://www.w3.org/1999/xlink" x="0px" y="0px" viewBox="0 0 36 36" xml:space="preserve">
	<path fill="#ffffff" d="M18,1.6c0.1,0,0.1,0,0.2,0.1C19.1,2.5,20,3.2,20.8,4c0.2,0.2,0.2,0.3,0,0.4c-0.9,0.6-1.7,1.3-2.5,2 c-0.1,0.1-0.3,0.2-0.4,0c0,0,0,0,0,0c-0.8-0.7-1.6-1.4-2.5-2c-0.3-0.2-0.3-0.3,0-0.5c0.8-0.8,1.7-1.5,2.5-2.3 C17.9,1.6,17.9,1.6,18,1.6" />
	<path fill="#ffffff" d="M13.7,5.5c0,0,0.1,0.1,0.1,0.1c0.9,0.7,1.7,1.4,2.6,2.1c0.2,0.2,0.2,0.3,0,0.4c-0.7,0.7-1.5,1.4-2.2,2.1 c-0.1,0.1-0.3,0.1-0.4,0l0,0C13,9.7,12.1,9,11.3,8.4c-0.2-0.1-0.2-0.3,0-0.4l2.3-2.4C13.6,5.6,13.7,5.5,13.7,5.5" />
	<path fill="#ffffff" d="M22.3,5.5c0.1,0,0.1,0.1,0.2,0.1C23.2,6.5,24,7.2,24.8,8c0.2,0.2,0.1,0.3,0,0.4c-0.9,0.6-1.7,1.2-2.5,1.9 c-0.1,0.1-0.3,0.1-0.4,0l0,0c-0.7-0.7-1.5-1.4-2.3-2.2c-0.2-0.2-0.2-0.3,0-0.4c0.9-0.7,1.7-1.4,2.6-2.1C22.2,5.6,22.2,5.5,22.3,5.5" />
	<path fill="#ffffff" d="M10.4,14.3c-0.1,0-0.2,0-0.2-0.1c-0.8-0.6-1.6-1.1-2.4-1.7c-0.2-0.1-0.2-0.3-0.1-0.5c0.7-0.8,1.3-1.6,2-2.3 c0.1-0.1,0.2-0.1,0.3,0c0.9,0.6,1.7,1.3,2.6,1.9c0.1,0.1,0.1,0.2,0,0.3c-0.7,0.7-1.4,1.5-2,2.3C10.5,14.3,10.4,14.3,10.4,14.3" />
	<path fill="#ffffff" d="M26.2,9.6c0.1,0,0.1,0.1,0.2,0.1c0.7,0.8,1.4,1.6,2,2.4c0.2,0.2,0.1,0.3-0.1,0.4c-0.8,0.6-1.6,1.1-2.4,1.7 c-0.1,0.1-0.3,0.1-0.4,0c0,0,0,0,0-0.1c-0.6-0.8-1.3-1.5-2-2.2c-0.1-0.1-0.1-0.2,0-0.3c0.9-0.7,1.7-1.3,2.6-2 C26.1,9.7,26.1,9.6,26.2,9.6" />
	<path fill="#ffffff" d="M18,9.2c0.1,0,0.2,0,0.2,0.1c0.7,0.7,1.4,1.4,2.1,2c0.2,0.2,0.2,0.3,0,0.5c-0.7,0.6-1.4,1.2-2.1,1.8 c-0.2,0.2-0.3,0.2-0.5,0c-0.7-0.6-1.4-1.2-2.1-1.8c-0.3-0.2-0.3-0.3,0-0.5c0.7-0.7,1.4-1.4,2.1-2C17.9,9.2,17.9,9.2,18,9.2" />
	<path fill="#ffffff" d="M16.6,15c0,0.1,0,0.2-0.1,0.3c-0.7,0.6-1.3,1.3-2,2c-0.1,0.1-0.3,0.2-0.3,0.1l0,0c-0.6-0.6-1.3-1.1-2-1.6 c-0.2-0.1-0.2-0.3,0-0.4c0.6-0.7,1.2-1.4,1.9-2.1c0.1-0.1,0.3-0.1,0.4,0c0,0,0,0,0,0c0.7,0.6,1.4,1.2,2,1.8 C16.5,14.9,16.6,15,16.6,15" />
	<path fill="#ffffff" d="M24.1,15.4c0,0.1-0.1,0.2-0.1,0.2c-0.7,0.5-1.3,1.1-2,1.6c-0.1,0.1-0.3,0.1-0.4,0l0,0c-0.6-0.6-1.3-1.3-2-2 c-0.2-0.1-0.2-0.3,0-0.4c0.7-0.6,1.4-1.2,2.1-1.8c0.1-0.1,0.3-0.1,0.3,0l0,0l1.9,2.2C24,15.3,24.1,15.4,24.1,15.4" />
	<path fill="#ffffff" d="M29.6,13.8c0.1,0,0.1,0.1,0.2,0.1c0.6,0.7,1.1,1.4,1.5,2.2c0.1,0.2,0.1,0.3-0.1,0.4c-0.9,0.5-1.7,1-2.5,1.5 c-0.1,0.1-0.2,0.1-0.3,0l0,0l-1.4-2c-0.1-0.1-0.1-0.2,0-0.3l0,0C27.8,15,28.7,14.4,29.6,13.8C29.5,13.8,29.6,13.8,29.6,13.8" />
	<path fill="#ffffff" d="M9.2,15.8c0,0.1,0,0.1-0.1,0.2c-0.5,0.6-0.9,1.3-1.4,1.9c-0.1,0.2-0.3,0.2-0.4,0.1c-0.8-0.5-1.6-1-2.4-1.5 c-0.3-0.2-0.3-0.2-0.1-0.5c0.5-0.7,1-1.4,1.5-2.1c0.1-0.1,0.2-0.2,0.3-0.1c0.8,0.6,1.7,1.2,2.5,1.7C9.1,15.7,9.2,15.7,9.2,15.8" />
	<path fill="#ffffff" d="M18,20.6c-0.1,0-0.1,0-0.2-0.1c-0.6-0.6-1.2-1.2-1.9-1.7c-0.2-0.2-0.2-0.3,0-0.5c0.6-0.6,1.3-1.2,1.9-1.9 c0.1-0.1,0.2-0.1,0.3,0c0,0,0,0,0,0c0.6,0.6,1.3,1.2,1.9,1.9c0.2,0.2,0.2,0.3,0,0.4c-0.6,0.6-1.3,1.2-1.9,1.7 C18.1,20.6,18.1,20.7,18,20.6" />
	<path fill="#ffffff" d="M3.7,17.9c0,0,0.1,0,0.2,0.1c0.8,0.5,1.6,1,2.4,1.5c0.2,0.1,0.3,0.3,0.1,0.5c-0.3,0.6-0.6,1.1-0.9,1.7 c-0.1,0.2-0.3,0.3-0.5,0.1c-0.8-0.5-1.7-0.9-2.5-1.3c-0.2-0.1-0.2-0.2-0.1-0.3c0.3-0.7,0.7-1.4,1.1-2C3.5,18,3.6,17.9,3.7,17.9" />
	<path fill="#ffffff" d="M33.7,20.2c0,0.1-0.1,0.1-0.1,0.1c-0.9,0.4-1.7,0.9-2.6,1.4c-0.2,0.1-0.3,0.1-0.4-0.1c-0.3-0.6-0.6-1.2-1-1.7 c-0.1-0.1-0.1-0.3,0-0.3c0,0,0,0,0.1,0c0.9-0.5,1.7-1,2.5-1.5c0.1,0,0.2-0.1,0.3,0C32.9,18.7,33.3,19.5,33.7,20.2 C33.7,20.2,33.7,20.2,33.7,20.2" />
	<path fill="#ffffff" d="M24.7,20.7c-0.1,0-0.2,0-0.2-0.1c-0.5-0.6-0.9-1.1-1.4-1.7c-0.1-0.1-0.1-0.2,0-0.3l0,0l2-1.6 c0.1-0.1,0.3-0.1,0.3,0c0,0,0,0,0,0.1l1.3,1.8c0.1,0.2,0.1,0.3-0.1,0.4L24.7,20.7C24.8,20.7,24.8,20.7,24.7,20.7" />
	<path fill="#ffffff" d="M11.3,20.7c0,0-0.1,0-0.2-0.1c-0.6-0.4-1.2-0.9-1.8-1.3c-0.2-0.1-0.2-0.3-0.1-0.5c0.4-0.6,0.8-1.2,1.2-1.7 c0.2-0.3,0.3-0.3,0.5-0.1l1.8,1.4c0.3,0.2,0.3,0.3,0,0.5l-1.3,1.5C11.5,20.7,11.4,20.7,11.3,20.7" />
	<path fill="#ffffff" d="M35.2,24.2c0,0.1-0.1,0.3-0.2,0.3c-0.8,0.3-1.6,0.7-2.4,1c-0.2,0.1-0.3,0-0.4-0.2c-0.2-0.5-0.3-1.1-0.6-1.6 c-0.1-0.2,0-0.3,0.1-0.4c0.8-0.4,1.6-0.9,2.4-1.3c0.1-0.1,0.3-0.1,0.3,0.1C34.8,22.8,35,23.5,35.2,24.2" />
	<path fill="#ffffff" d="M1.7,22l0.2,0.1c0.8,0.4,1.6,0.9,2.4,1.3c0.2,0,0.3,0.2,0.2,0.4c0,0,0,0,0,0c-0.2,0.5-0.4,1-0.6,1.5 c-0.1,0.3-0.2,0.3-0.4,0.2c-0.8-0.3-1.5-0.7-2.3-1c-0.2,0-0.3-0.2-0.3-0.4c0,0,0,0,0-0.1c0.2-0.6,0.3-1.2,0.6-1.9 C1.5,22.2,1.6,22,1.7,22" />
	<path fill="#ffffff" d="M21,23.7c-0.1,0-0.2,0-0.2-0.1c-0.4-0.5-0.9-0.9-1.3-1.4c-0.1-0.1-0.1-0.2,0-0.3c0,0,0,0,0,0 c0.6-0.6,1.2-1.1,1.8-1.7c0.1-0.1,0.3-0.1,0.3,0c0,0,0,0,0.1,0.1c0.4,0.5,0.9,1,1.3,1.5c0.1,0.1,0.1,0.3,0,0.3l0,0l-1.8,1.5 C21.1,23.6,21,23.7,21,23.7" />
	<path fill="#ffffff" d="M15,23.7c-0.1,0-0.2,0-0.2-0.1c-0.6-0.5-1.2-1-1.8-1.5c-0.2-0.1-0.2-0.3,0-0.4c0.4-0.5,0.9-1,1.3-1.6 c0.1-0.1,0.2-0.1,0.3-0.1c0,0,0,0,0,0l1.8,1.7c0.1,0.1,0.2,0.3,0.1,0.3c0,0,0,0-0.1,0.1c-0.4,0.4-0.9,0.9-1.2,1.4 C15.2,23.6,15.2,23.7,15,23.7" />
	<path fill="#ffffff" d="M29.1,22.7c0,0.1-0.1,0.2-0.2,0.3L27.2,24c-0.1,0.1-0.3,0.1-0.3,0l0,0c-0.3-0.5-0.6-1-1-1.5 c-0.1-0.1-0.1-0.3,0-0.3l0,0c0.6-0.4,1.2-0.9,1.8-1.3c0.1-0.1,0.2-0.1,0.3,0c0,0,0,0,0,0.1c0.3,0.6,0.7,1.2,1,1.8 C29.1,22.7,29.1,22.7,29.1,22.7" />
	<path fill="#ffffff" d="M8.9,24.1c0,0-0.1,0-0.2-0.1c-0.6-0.3-1.1-0.7-1.6-1c-0.2,0-0.3-0.2-0.2-0.4c0,0,0-0.1,0-0.1 c0.3-0.5,0.6-1,0.9-1.5c0.1-0.2,0.3-0.3,0.5-0.1c0.6,0.4,1.2,0.8,1.7,1.2c0.1,0.1,0.2,0.2,0.1,0.4c0,0,0,0,0,0.1 c-0.3,0.5-0.6,0.9-0.9,1.4C9.2,24,9.1,24.1,8.9,24.1" />
	<path fill="#ffffff" d="M11.8,23.4c0.1,0,0.2,0,0.3,0.1c0.6,0.5,1.1,0.9,1.7,1.4c0.1,0.1,0.2,0.3,0.1,0.4c0,0,0,0,0,0.1 c-0.3,0.3-0.6,0.8-0.9,1.2c-0.1,0.2-0.3,0.2-0.4,0.1c-0.6-0.4-1.1-0.9-1.7-1.2c-0.2-0.1-0.2-0.3-0.1-0.4c0.3-0.4,0.6-0.9,0.9-1.3 C11.6,23.5,11.7,23.4,11.8,23.4" />
	<path fill="#ffffff" d="M23.4,26.7c-0.1,0-0.2,0-0.3-0.1c-0.3-0.4-0.6-0.8-0.9-1.2c-0.1-0.2-0.1-0.3,0-0.4c0.6-0.5,1.2-1,1.7-1.4 c0.1-0.1,0.3-0.1,0.3,0c0,0,0,0,0.1,0.1c0.3,0.5,0.6,0.9,0.9,1.4c0.1,0.1,0.1,0.2,0,0.3c0,0,0,0,0,0l-1.8,1.4H23.4z" />
	<path fill="#ffffff" d="M19.6,25c0,0.1-0.1,0.1-0.1,0.2c-0.4,0.4-0.8,0.9-1.2,1.3c-0.2,0.2-0.3,0.2-0.4,0c-0.4-0.4-0.8-0.8-1.2-1.2 c-0.2-0.2-0.2-0.3,0-0.5c0.4-0.4,0.8-0.9,1.2-1.3c0.1-0.1,0.2-0.2,0.3-0.1c0,0,0,0,0.1,0.1l1.2,1.3C19.5,24.8,19.6,24.9,19.6,25" />
	<path fill="#ffffff" d="M30.5,26.3c0,0.1-0.1,0.2-0.2,0.3c-0.5,0.3-1,0.5-1.5,0.8c-0.2,0.1-0.3,0-0.3-0.1c-0.2-0.4-0.3-0.8-0.5-1.2 c-0.1-0.1,0-0.3,0.1-0.3h0l1.6-1c0.1-0.1,0.3-0.1,0.3,0.1C30.3,25.2,30.5,25.8,30.5,26.3C30.5,26.3,30.5,26.3,30.5,26.3" />
	<path fill="#ffffff" d="M5.5,26.3c0.2-0.6,0.3-1.1,0.6-1.6c0-0.1,0.1-0.2,0.3-0.1c0,0,0,0,0,0L8,25.6c0.1,0.1,0.2,0.2,0.1,0.3 c-0.2,0.4-0.3,0.9-0.6,1.3c-0.1,0.2-0.2,0.2-0.3,0.1c-0.6-0.3-1.1-0.5-1.6-0.8C5.5,26.5,5.5,26.4,5.5,26.3" />
	<path fill="#ffffff" d="M16.8,28c0,0.1,0,0.1-0.1,0.2c-0.3,0.3-0.5,0.6-0.7,1c-0.1,0.2-0.3,0.2-0.4,0c-0.4-0.4-0.9-0.8-1.3-1.2 c-0.1-0.1-0.2-0.3-0.1-0.3c0,0,0,0,0,0c0.3-0.3,0.6-0.8,0.8-1.1c0-0.1,0.2-0.1,0.3-0.1c0,0,0,0,0.1,0c0.4,0.4,0.9,0.9,1.3,1.3 C16.7,27.9,16.8,28,16.8,28" />
	<path fill="#ffffff" d="M21.9,27.9c0,0.1,0,0.2-0.1,0.2c-0.4,0.4-0.9,0.8-1.3,1.2c-0.2,0.1-0.3,0.1-0.4,0c-0.3-0.3-0.5-0.7-0.8-1 c-0.1-0.1-0.1-0.3,0-0.3l1.3-1.3c0.1-0.1,0.3-0.1,0.3,0c0.3,0.4,0.6,0.8,0.9,1.2C21.8,27.8,21.9,27.8,21.9,27.9" />
	<path fill="#ffffff" d="M35.5,27.1c0,0.8,0,0.8-0.8,1.1c-0.5,0.2-0.9,0.3-1.4,0.5c-0.3,0.1-0.3,0-0.4-0.3c0-0.3-0.1-0.5-0.1-0.7 c0-0.1,0-0.3,0.2-0.3c0.7-0.3,1.4-0.6,2.2-0.9c0.2-0.1,0.3,0,0.3,0.3V27.1z" />
	<path fill="#ffffff" d="M0.5,27.1c0-0.7,0-0.9,0.7-0.6c0.6,0.3,1.2,0.5,1.8,0.8c0.2,0.1,0.3,0.2,0.2,0.4c0,0.3-0.1,0.6-0.1,0.8 c0,0.2-0.1,0.3-0.3,0.2c-0.7-0.2-1.4-0.5-2.1-0.7c-0.1,0-0.2-0.1-0.2-0.3C0.6,27.5,0.5,27.2,0.5,27.1" />
	<path fill="#ffffff" d="M26.9,28.2c0,0.1-0.1,0.2-0.2,0.3c-0.6,0.3-1.1,0.6-1.7,1c-0.1,0.1-0.2,0.1-0.3,0c0,0,0,0,0-0.1 c-0.1-0.3-0.3-0.6-0.4-0.9c-0.1-0.1,0-0.3,0.1-0.3l1.7-1.2c0.1-0.1,0.3-0.1,0.3,0C26.6,27.4,26.8,27.8,26.9,28.2" />
	<path fill="#ffffff" d="M9.1,28.2c0.1-0.4,0.3-0.8,0.5-1.2c0-0.1,0.2-0.1,0.3-0.1c0,0,0,0,0,0c0.6,0.4,1.2,0.9,1.7,1.3 c0.1,0.1,0.1,0.2,0,0.3c-0.1,0.3-0.3,0.6-0.4,0.9c0,0.1-0.1,0.2-0.3,0.2c0,0-0.1,0-0.1,0l-1.7-1C9.1,28.4,9.1,28.3,9.1,28.2" />
	<path fill="#ffffff" d="M18,29.6c0.1,0,0.2,0,0.2,0.1c0.2,0.3,0.5,0.6,0.7,1c0.1,0.1,0.1,0.2,0,0.3c-0.2,0.3-0.5,0.6-0.7,0.9 c-0.1,0.2-0.3,0.2-0.4,0c-0.2-0.3-0.4-0.6-0.6-0.8c-0.1-0.1-0.1-0.2,0-0.3C17.4,30.4,17.6,30,18,29.6C17.9,29.6,17.9,29.6,18,29.6" />
	<path fill="#ffffff" d="M23.3,30.5c0,0.1,0,0.3-0.1,0.3l-1.3,1c-0.2,0.1-0.3,0.1-0.3-0.1c-0.3-0.8-0.4-0.6,0.2-1.1 c0.3-0.3,0.6-0.6,0.9-0.9c0.2-0.2,0.3-0.2,0.5,0.1C23.2,30.1,23.3,30.3,23.3,30.5" />
	<path fill="#ffffff" d="M31.2,29.3c0,0.1-0.1,0.3-0.2,0.3l-1.4,0.6c-0.2,0.1-0.3,0-0.3-0.2v0c-0.2-0.9-0.3-0.7,0.6-1.2 c0.3-0.2,0.6-0.3,1-0.5c0.2-0.1,0.3,0,0.3,0.1C31.1,28.8,31.2,29,31.2,29.3" />
	<path fill="#ffffff" d="M6.9,29.4c0,0.3-0.1,0.5-0.1,0.7c0,0.2-0.1,0.2-0.3,0.1L5,29.6c0,0-0.1,0-0.1-0.1c-0.1-0.1,0-1.1,0.2-1.2 c0,0,0.1,0,0.2,0l1.5,0.8C6.9,29.1,6.9,29.3,6.9,29.4" />
	<path fill="#ffffff" d="M14.8,31.1c-0.1,0.3-0.2,0.5-0.3,0.7c-0.1,0.1-0.2,0-0.3,0c-0.5-0.3-0.9-0.7-1.4-1.1c-0.1-0.1-0.1-0.2,0-0.3 c0.1-0.2,0.2-0.4,0.3-0.7c0.1-0.3,0.2-0.2,0.4-0.1l1.3,1.2C14.7,31,14.8,31.1,14.8,31.1" />
	<path fill="#ffffff" d="M27.6,31c0,0.1,0,0.2-0.1,0.3L25.9,32c-0.2,0.1-0.3,0-0.3-0.1c-0.2-0.5-0.2-0.6,0.3-0.8 c0.4-0.3,0.8-0.5,1.2-0.7c0.3-0.2,0.3-0.1,0.4,0.2C27.5,30.7,27.6,30.8,27.6,31" />
	<path fill="#ffffff" d="M8.4,31L8.4,31c0.1-0.9,0.1-0.9,0.8-0.5c0.3,0.2,0.7,0.4,1,0.6c0.2,0.3,0.2,0.6,0,0.9c-0.1,0-0.2,0-0.3,0 l-1.4-0.8C8.5,31.2,8.4,31.1,8.4,31" />
	<path fill="#ffffff" d="M15.8,33.2c0-0.2,0.1-0.3,0.2-0.5c0-0.1,0.1-0.1,0.2-0.1c0,0,0,0,0.1,0.1c0.2,0.3,0.4,0.6,0.6,0.8 c0,0.3-0.1,0.6-0.2,0.9c0,0-0.1,0-0.2,0v0C16.3,34,16.1,33.6,15.8,33.2C15.8,33.3,15.8,33.3,15.8,33.2" />
	<path fill="#ffffff" d="M20.2,33.2c0,0,0,0.1,0,0.2c-0.2,0.3-0.3,0.6-0.5,0.9c0,0.1-0.1,0.2-0.2,0.2c-0.1,0-0.2-0.1-0.2-0.3 c0-0.2-0.2-0.4-0.1-0.6c0.2-0.3,0.4-0.6,0.6-0.9c0-0.1,0.1-0.1,0.2,0l0,0C20.1,32.9,20.2,33.1,20.2,33.2" />
	<path fill="#ffffff" d="M24,33c0,0.1,0,0.2-0.1,0.3c-0.4,0.3-0.8,0.5-1.2,0.8c-0.1,0.1-0.2,0.1-0.3,0c-0.1-0.1-0.1-0.3,0-0.3 c0.4-0.4,0.8-0.7,1.3-1.1C23.9,32.5,24,32.6,24,33" />
	<path fill="#ffffff" d="M12,33c0-0.1,0-0.3,0.1-0.4c0.1-0.1,0.3,0.1,0.3,0.2c0.3,0.3,0.7,0.6,1.1,0.9c0.1,0.1,0.2,0.3,0.1,0.4 s-0.3,0-0.4,0l-1.1-0.7C12.1,33.2,12,33.1,12,33" />
</svg>
