<?xml version="1.0" encoding="utf-8"?>
<!-- Generator: Adobe Illustrator 24.0.0, SVG Export Plug-In . SVG Version: 6.00 Build 0)  -->
<svg version="1.1" id="Capa_1" xmlns="http://www.w3.org/2000/svg" xmlns:xlink="http://www.w3.org/1999/xlink" x="0px" y="0px"
	 viewBox="0 0 231.1 131.9" style="enable-background:new 0 0 231.1 131.9;" xml:space="preserve">
<style type="text/css">
	.st0{opacity:0.7;}
	.st1{fill:none;stroke:#FFFFFF;stroke-miterlimit:10;}
	.st2{fill:#262049;}
	.st3{fill:none;stroke:#8449B7;stroke-width:0.7319;stroke-miterlimit:10;}
	.st4{opacity:0.2;stroke:#662D91;stroke-width:2.7787;stroke-miterlimit:10;}
	.st5{fill:#662D91;}
	.st6{fill:#4EB57C;}
	.st7{fill:none;stroke:#B3B3B3;stroke-width:0.7319;stroke-miterlimit:10;}
	.st8{stroke:#662D91;stroke-width:2.7787;stroke-miterlimit:10;}
	.st9{fill:#1E293B;}
	.st10{fill:none;stroke:#8449B7;stroke-width:0.5827;stroke-miterlimit:10;}
</style>
<g>
	<g>
		<path class="st9" d="M24.8,111.4l-4,11c-0.2,0.7-0.6,1.3-1.1,1.9c-0.6,0.4-1.4,0.6-2.1,0.6c-0.8,0.1-1.5-0.1-2.1-0.6
			c-0.5-0.5-0.9-1.2-1.1-1.9l-3.9-11c-0.2-0.4-0.3-0.7-0.4-0.7s-0.3,0.2-0.3,0.6l0.1,13.3H5v-16.5c0-0.5,0.1-1,0.4-1.5
			c0.2-0.4,0.6-0.7,1-0.9c0.4-0.2,0.8-0.3,1.2-0.4c0.4-0.1,0.8-0.1,1.2-0.1c1.9-0.2,3.6,1,4.2,2.8l4,11.1c0.2,0.5,0.4,0.8,0.5,0.8
			s0.4-0.3,0.5-0.8l4-11.1c0.5-1.8,2.3-3,4.1-2.8c2.6,0,3.9,1,3.9,3v16.4h-4.8l0.2-13.3c0-0.4-0.1-0.6-0.3-0.6S25,111,24.8,111.4z"
			/>
	</g>
	<g>
		<path class="st9" d="M39.2,120.1c0.8,0.7,1.9,1.1,3,1c1.1,0.1,2.2-0.3,3-1c0.7-0.8,1.1-1.9,1-3v-11.6h4.9v11.9
			c0,2.8-0.7,4.7-2.2,5.8c-1.5,1.1-3.7,1.7-6.7,1.7s-5.2-0.6-6.7-1.7s-2.2-3.1-2.2-5.8v-11.9h4.9v11.6
			C38.1,118.2,38.5,119.3,39.2,120.1z"/>
	</g>
	<g>
		<path class="st9" d="M70.3,124.7H57.1c-1.4,0.2-2.7-0.8-2.9-2.2c0-0.2,0-0.5,0-0.7v-16.3h4.9v14.1c-0.1,0.6,0.2,1.2,0.8,1.3
			c0.2,0,0.3,0,0.5,0h9.9L70.3,124.7z"/>
	</g>
	<g>
		<polygon class="st9" points="79.1,124.7 74.2,124.7 74.2,109.3 67,109.3 67,105.5 86.2,105.5 86.2,109.3 79.1,109.3 		"/>
	</g>
	<g>
		<rect x="87.7" y="105.5" class="st9" width="4.9" height="19.2"/>
	</g>
	<g>
		<path class="st9" d="M111.8,124.7H98.6c-1.4,0.2-2.7-0.7-3-2.1c0,0,0,0,0-0.1c0-0.3,0-0.6,0-0.9v-16.2h5v14.1c0,0.4,0.1,0.7,0.3,1
			c0.3,0.2,0.6,0.3,1,0.3h9.9L111.8,124.7z"/>
	</g>
	<g>
		<rect x="113.3" y="105.5" class="st9" width="4.9" height="19.2"/>
	</g>
	<g>
		<path class="st9" d="M141.1,111.4l-3.9,11c-0.2,0.7-0.6,1.3-1.1,1.9c-1.3,0.8-2.9,0.8-4.2,0c-0.5-0.5-0.9-1.2-1.1-1.9l-3.9-11
			c-0.2-0.4-0.3-0.7-0.4-0.7s-0.3,0.2-0.3,0.6l0.1,13.3h-4.9v-16.5c0-0.5,0.1-1,0.4-1.5c0.2-0.4,0.6-0.7,1-0.9
			c0.4-0.2,0.8-0.3,1.2-0.4c0.4-0.1,0.8-0.1,1.2-0.1c1.9-0.2,3.6,1,4.2,2.8l4,11.1c0.2,0.5,0.4,0.8,0.6,0.8s0.4-0.3,0.6-0.8l4-11.1
			c0.5-1.8,2.3-3,4.1-2.8c2.6,0,3.9,1,3.9,3v16.4h-4.8l0.2-13.3c0-0.4-0.1-0.6-0.3-0.6S141.2,111,141.1,111.4z"/>
	</g>
	<g>
		<path class="st9" d="M154.5,124.7h-4.9v-16.3c0-2,1-3,2.9-3h10.2c0.9,0,1.8,0.1,2.6,0.4c0.7,0.3,1.2,0.8,1.6,1.4
			c0.4,0.6,0.6,1.3,0.8,2c0.2,0.9,0.2,1.8,0.2,2.7c0.1,1.7-0.3,3.4-1.1,4.9c-0.7,1.1-2.1,1.7-4.1,1.7h-8.2L154.5,124.7z
			 M154.5,114.7h5.6c0.8,0.1,1.5-0.1,2.1-0.6c0.5-0.6,0.7-1.4,0.6-2.1c0.1-0.7-0.1-1.5-0.6-2.1c-0.6-0.5-1.3-0.7-2.1-0.6h-4.3
			c-0.6-0.1-1.2,0.2-1.3,0.8c0,0,0,0,0,0c0,0.2,0,0.3,0,0.5V114.7z"/>
	</g>
	<g>
		<path class="st9" d="M169.7,124.7v-3.8h10.6c0.3,0,0.7-0.1,0.9-0.3c0.2-0.1,0.3-0.3,0.4-0.5c0-0.2,0.1-0.4,0.1-0.6
			c0-0.7-0.5-1.2-1.5-1.6l-7.5-2.3c-1.1-0.3-2-0.9-2.5-1.9c-0.5-1.1-0.8-2.3-0.7-3.5c0-3.2,1.5-4.8,4.4-4.8h11.9v3.8h-9.9
			c-0.9,0-1.4,0.4-1.4,1.3c0,0.8,0.5,1.3,1.5,1.6l6.8,2c1.2,0.3,2.3,0.9,3.1,1.8c0.7,1.1,1,2.3,0.9,3.6c0,3.4-1.5,5.1-4.4,5.1H169.7
			z"/>
	</g>
	<g>
		<path class="st9" d="M187.3,124.7l7.2-17.2c0.2-0.7,0.7-1.3,1.3-1.7c0.8-0.4,1.6-0.6,2.5-0.5c0.8-0.1,1.6,0.1,2.4,0.4
			c0.7,0.4,1.2,1,1.4,1.8l7.1,17.2H204l-1.7-4.4h-8.1l-1.7,4.4H187.3z M197.9,110.5l-2.4,6.1h5.7l-2.5-6.1c-0.1-0.4-0.3-0.6-0.4-0.6
			S198,110.1,197.9,110.5L197.9,110.5z"/>
	</g>
	<g>
		<path class="st9" d="M226.1,124.7h-8.2c-3.1,0-5.2-0.8-6.4-2.4s-1.8-4-1.8-7.2s0.6-5.6,1.8-7.2s3.4-2.4,6.4-2.4h7.9v3.8h-5.5
			c-2.2,0-3.7,0.4-4.5,1.2s-1.2,2.3-1.2,4.6s0.4,3.8,1.2,4.6s2.3,1.2,4.5,1.2h5.8L226.1,124.7z"/>
	</g>
	<path class="st6" d="M115.1,7c0.2,0,0.4,0.1,0.6,0.3c2.4,2.1,4.8,4.3,7.2,6.5c0.5,0.4,0.4,0.8-0.1,1.2c-2.4,1.8-4.7,3.7-6.9,5.7
		c-0.3,0.4-0.8,0.5-1.2,0.2c-0.1,0-0.1-0.1-0.2-0.2c-2.2-1.9-4.5-3.8-6.8-5.6c-0.7-0.5-0.7-0.7-0.1-1.3c2.3-2.2,4.6-4.3,7-6.4
		C114.7,7.2,114.9,7,115.1,7z"/>
	<path class="st6" d="M103.2,17.9c0.2,0.1,0.3,0.2,0.4,0.3c2.4,1.9,4.8,3.8,7.1,5.8c0.5,0.4,0.5,0.8,0,1.2c-2.1,2-4.1,3.9-6.2,5.9
		c-0.3,0.3-0.7,0.4-1.1,0.1l-0.1-0.1c-2.3-1.7-4.6-3.5-6.9-5.2c-0.5-0.4-0.5-0.7-0.1-1.1l6.5-6.7C103,18.1,103.1,18,103.2,17.9z"/>
	<path class="st6" d="M127,18c0.2,0,0.3,0.2,0.5,0.3c2.1,2.2,4.3,4.4,6.4,6.6c0.4,0.4,0.4,0.8-0.1,1.2c-2.3,1.7-4.6,3.4-6.9,5.2
		c-0.3,0.3-0.7,0.3-1,0l-0.1-0.1c-2.1-2-4.1-4-6.2-6c-0.4-0.4-0.5-0.8,0-1.2c2.3-2,4.7-4,7.2-5.8C126.8,18.1,126.9,18,127,18z"/>
	<path class="st6" d="M93.9,42.3c-0.2,0-0.4-0.1-0.6-0.3c-2.2-1.5-4.4-3.1-6.6-4.6c-0.6-0.4-0.6-0.7-0.2-1.3
		c1.9-2.2,3.7-4.3,5.5-6.5c0.3-0.4,0.5-0.4,0.9-0.1c2.4,1.7,4.8,3.5,7.2,5.4c0.4,0.3,0.4,0.4,0.1,0.8c-2,2-3.9,4.2-5.7,6.4
		C94.3,42.2,94.2,42.3,93.9,42.3z"/>
	<path class="st6" d="M137.7,29.3c0.3,0,0.4,0.2,0.5,0.3c1.9,2.2,3.8,4.3,5.6,6.6c0.4,0.5,0.3,0.8-0.2,1.2c-2.2,1.5-4.4,3.1-6.6,4.6
		c-0.3,0.3-0.8,0.3-1.2,0c0,0,0,0,0,0c-0.1-0.1-0.1-0.1-0.1-0.2c-1.8-2.1-3.7-4.2-5.5-6.2c-0.3-0.3-0.4-0.5,0-0.8
		c2.4-1.8,4.8-3.7,7.2-5.4C137.4,29.4,137.6,29.3,137.7,29.3z"/>
	<path class="st6" d="M115.1,28.1c0.2,0,0.5,0.1,0.6,0.3c2,1.9,3.9,3.8,5.9,5.6c0.5,0.5,0.5,0.9,0,1.3c-2,1.6-3.9,3.3-5.8,5
		c-0.5,0.4-0.9,0.5-1.4,0c-1.8-1.7-3.8-3.3-5.8-5c-0.7-0.6-0.7-0.8-0.1-1.4c1.9-1.9,3.9-3.7,5.8-5.6
		C114.7,28.3,114.9,28.1,115.1,28.1z"/>
	<path class="st6" d="M111.2,44.4c0,0.3-0.1,0.5-0.4,0.7c-1.8,1.7-3.7,3.5-5.4,5.4c-0.2,0.3-0.7,0.4-1,0.2c-0.1,0-0.1-0.1-0.2-0.1
		c-1.8-1.5-3.7-3-5.5-4.4c-0.5-0.4-0.6-0.8-0.2-1.2c1.7-2,3.5-4,5.3-5.9c0.2-0.3,0.7-0.4,1-0.2c0.1,0,0.1,0.1,0.2,0.2
		c1.9,1.7,3.8,3.3,5.7,4.9C111,44,111.1,44.2,111.2,44.4z"/>
	<path class="st6" d="M132,45.4c0,0.3-0.2,0.5-0.4,0.6c-1.8,1.5-3.7,2.9-5.5,4.4c-0.3,0.3-0.7,0.4-1.1,0.1c-0.1,0-0.1-0.1-0.1-0.2
		c-1.8-1.8-3.6-3.6-5.4-5.4c-0.4-0.4-0.5-0.8,0-1.2c2-1.7,3.9-3.3,5.8-5c0.2-0.3,0.7-0.3,1-0.1c0,0,0,0,0,0c0.1,0,0.1,0.1,0.1,0.2
		l5.3,6C131.8,45.1,131.9,45.2,132,45.4z"/>
	<path class="st6" d="M147.2,40.9c0.2,0,0.3,0.2,0.4,0.3c1.5,2,2.9,4,4.3,6.1c0.3,0.5,0.2,0.8-0.3,1.1c-2.4,1.3-4.7,2.7-7,4.2
		c-0.2,0.2-0.6,0.2-0.8,0c0,0-0.1-0.1-0.1-0.1l-4-5.5c-0.2-0.2-0.2-0.6,0-0.8c0,0,0,0,0,0c0,0,0.1-0.1,0.1-0.1
		c2.4-1.7,4.8-3.4,7.2-5L147.2,40.9z"/>
	<path class="st6" d="M90.7,46.5c0,0.2-0.1,0.4-0.3,0.5c-1.3,1.8-2.6,3.5-3.8,5.3c-0.3,0.5-0.7,0.5-1.2,0.2
		c-2.2-1.4-4.5-2.7-6.7-4.1c-0.8-0.5-0.8-0.6-0.3-1.3c1.3-2,2.7-3.9,4.1-5.8c0.2-0.3,0.4-0.5,0.8-0.2c2.3,1.7,4.6,3.2,6.9,4.9
		C90.5,46.1,90.6,46.3,90.7,46.5z"/>
	<path class="st6" d="M115.1,59.8c-0.2,0-0.4-0.1-0.5-0.3c-1.7-1.6-3.5-3.2-5.2-4.8c-0.5-0.5-0.5-0.8,0-1.3c1.8-1.7,3.5-3.5,5.2-5.2
		c0.2-0.3,0.6-0.4,1-0.2c0.1,0,0.1,0.1,0.2,0.2c1.8,1.7,3.6,3.4,5.3,5.2c0.4,0.5,0.5,0.8,0,1.2c-1.8,1.6-3.5,3.2-5.3,4.8
		C115.5,59.7,115.4,59.9,115.1,59.8z"/>
	<path class="st6" d="M75.4,52.2c0.2,0.1,0.3,0.2,0.5,0.3c2.3,1.4,4.5,2.8,6.8,4.1c0.6,0.4,0.7,0.7,0.3,1.3c-0.9,1.5-1.7,3-2.5,4.6
		c-0.3,0.6-0.7,0.7-1.3,0.4c-2.3-1.3-4.6-2.5-6.9-3.7c-0.5-0.2-0.5-0.4-0.3-0.9c1-1.9,1.9-3.8,3-5.6C75,52.5,75,52.2,75.4,52.2z"/>
	<path class="st6" d="M158.6,58.8c0,0.2-0.2,0.3-0.4,0.3c-2.4,1.2-4.8,2.5-7.2,3.8c-0.5,0.3-0.8,0.2-1.1-0.3
		c-0.8-1.7-1.7-3.3-2.7-4.9c-0.3-0.3-0.2-0.7,0.1-1c0.1,0,0.1-0.1,0.2-0.1l7-4.3c0.2-0.2,0.5-0.3,0.7,0.1c1.1,2,2.3,4,3.2,6.1
		C158.5,58.6,158.5,58.7,158.6,58.8z"/>
	<path class="st6" d="M133.6,60.1c-0.2,0-0.4-0.2-0.6-0.3l-3.8-4.6c-0.3-0.2-0.3-0.6-0.1-0.9c0,0,0,0,0,0c0-0.1,0.1-0.1,0.1-0.1
		l5.5-4.3c0.3-0.3,0.7-0.3,0.9,0c0.1,0.1,0.1,0.1,0.1,0.2l3.7,5.1c0.3,0.4,0.2,0.8-0.2,1l-5.3,3.8C133.9,60,133.8,60,133.6,60.1z"/>
	<path class="st6" d="M96.5,60.1c-0.1-0.1-0.3-0.2-0.5-0.3c-1.7-1.2-3.3-2.4-5.1-3.6c-0.6-0.4-0.6-0.7-0.2-1.3
		c1.2-1.6,2.3-3.2,3.5-4.7c0.6-0.7,0.7-0.7,1.5-0.2l5,3.9c0.7,0.6,0.7,0.7,0.1,1.5l-3.5,4.2C97.2,59.9,96.9,60.1,96.5,60.1z"/>
	<path class="st6" d="M162.6,69.9c0,0.4-0.2,0.7-0.6,0.8c-2.2,0.9-4.4,1.8-6.6,2.8c-0.6,0.2-0.9,0.2-1.1-0.5c-0.5-1.4-1-2.9-1.6-4.3
		c-0.2-0.6-0.2-0.9,0.4-1.2c2.2-1.2,4.5-2.4,6.7-3.6c0.4-0.2,0.8-0.3,1,0.2C161.6,65.9,162.2,67.9,162.6,69.9z"/>
	<path class="st6" d="M70,63.6l0.4,0.2c2.2,1.2,4.4,2.4,6.6,3.6c0.4,0.1,0.6,0.6,0.5,1c0,0.1,0,0.1-0.1,0.2C77,70,76.5,71.4,76,72.9
		c-0.3,0.8-0.5,0.9-1.2,0.6c-2.1-0.9-4.3-1.8-6.4-2.7c-0.5-0.1-0.8-0.5-0.7-1c0,0,0,0,0,0c0-0.1,0-0.1,0.1-0.2
		c0.4-1.7,1-3.5,1.6-5.2C69.4,64,69.5,63.7,70,63.6z"/>
	<path class="st6" d="M123.3,68.3c-0.2,0-0.4-0.1-0.6-0.3c-1.2-1.3-2.4-2.6-3.6-3.9c-0.3-0.2-0.4-0.6-0.2-0.9c0,0,0,0,0,0
		c0-0.1,0.1-0.1,0.2-0.2l5.1-4.6c0.2-0.3,0.7-0.4,1-0.1c0.1,0.1,0.1,0.1,0.2,0.2c1.2,1.4,2.4,2.9,3.6,4.3c0.3,0.2,0.3,0.7,0.1,0.9
		c0,0.1-0.1,0.1-0.2,0.1l-5.1,4.3C123.7,68.2,123.5,68.3,123.3,68.3z"/>
	<path class="st6" d="M106.9,68.3c-0.2,0-0.4-0.1-0.6-0.3c-1.7-1.4-3.3-2.8-5-4.2c-0.4-0.3-0.5-0.7-0.1-1.1c1.2-1.4,2.4-2.9,3.6-4.3
		c0.2-0.3,0.6-0.4,0.9-0.2c0.1,0,0.1,0.1,0.2,0.2L111,63c0.3,0.2,0.4,0.6,0.2,1c0,0,0,0,0,0c-0.1,0.1-0.1,0.2-0.2,0.2
		c-1.2,1.2-2.3,2.5-3.5,3.7C107.4,68.1,107.2,68.3,106.9,68.3z"/>
	<path class="st6" d="M145.8,65.6c0,0.3-0.2,0.5-0.4,0.7l-4.8,3c-0.3,0.2-0.7,0.2-0.9-0.1c0,0-0.1-0.1-0.1-0.1
		c-0.9-1.4-1.8-2.8-2.7-4.1c-0.2-0.2-0.3-0.6,0-0.9c0,0,0,0,0,0l0.1-0.1c1.7-1.2,3.4-2.4,5-3.6c0.2-0.3,0.6-0.3,0.8-0.1c0,0,0,0,0,0
		c0.1,0.1,0.1,0.1,0.1,0.2c1,1.6,1.9,3.2,2.7,4.9C145.8,65.5,145.8,65.6,145.8,65.6z"/>
	<path class="st6" d="M90,69.4c-0.2-0.1-0.3-0.2-0.5-0.2c-1.5-0.9-3-1.9-4.5-2.8c-0.4-0.1-0.7-0.6-0.5-1.1c0,0,0,0,0,0
		c0-0.1,0.1-0.2,0.2-0.3c0.8-1.4,1.6-2.9,2.4-4.3c0.3-0.6,0.7-0.7,1.3-0.3c1.6,1.1,3.2,2.3,4.7,3.4c0.4,0.2,0.5,0.6,0.4,1
		c0,0.1-0.1,0.2-0.2,0.2c-0.9,1.3-1.7,2.6-2.5,3.9C90.6,69.2,90.5,69.5,90,69.4z"/>
	<path class="st6" d="M97.8,67.6c0.3,0,0.5,0.1,0.7,0.3c1.6,1.3,3.1,2.6,4.7,3.9c0.4,0.2,0.5,0.7,0.3,1c0,0,0,0,0,0
		c0,0.1-0.1,0.1-0.2,0.2c-0.8,1-1.6,2.1-2.3,3.2c-0.4,0.5-0.7,0.6-1.2,0.2c-1.5-1.2-3.1-2.3-4.7-3.5c-0.5-0.4-0.6-0.7-0.3-1.2
		c0.8-1.2,1.6-2.5,2.4-3.7C97.4,67.8,97.5,67.6,97.8,67.6z"/>
	<path class="st6" d="M130,76.7c-0.3,0-0.6-0.1-0.7-0.4c-0.8-1.1-1.6-2.2-2.4-3.3c-0.3-0.4-0.3-0.7,0.1-1.1c1.6-1.3,3.3-2.7,4.9-4.1
		c0.2-0.3,0.6-0.3,0.9-0.1c0.1,0.1,0.2,0.2,0.2,0.3c0.8,1.3,1.7,2.6,2.5,3.9c0.2,0.2,0.2,0.6,0,0.8c0,0,0,0,0,0c0,0-0.1,0.1-0.1,0.1
		l-5.1,3.8C130.2,76.7,130.1,76.7,130,76.7z"/>
	<path class="st6" d="M119.5,71.9c0,0.3-0.2,0.4-0.4,0.6c-1.1,1.2-2.3,2.3-3.4,3.5c-0.4,0.5-0.8,0.5-1.2,0c-1.1-1.2-2.2-2.3-3.3-3.4
		c-0.4-0.4-0.5-0.8-0.1-1.2c1.2-1.2,2.3-2.4,3.4-3.7c0.2-0.3,0.6-0.4,0.9-0.2c0,0,0,0,0,0c0.1,0.1,0.2,0.1,0.2,0.2l3.4,3.7
		C119.3,71.4,119.4,71.7,119.5,71.9z"/>
	<path class="st6" d="M149.9,75.6c0,0.3-0.2,0.6-0.5,0.7c-1.4,0.7-2.9,1.4-4.3,2.2c-0.5,0.3-0.8,0.1-1-0.4c-0.5-1.1-1-2.3-1.5-3.4
		c-0.2-0.3-0.2-0.8,0.2-1c0,0,0,0,0,0h0.1l4.5-2.9c0.4-0.2,0.7-0.2,0.9,0.2c0.6,1.4,1.1,2.9,1.6,4.4
		C149.9,75.5,149.9,75.6,149.9,75.6z"/>
	<path class="st6" d="M80.3,75.5c0.5-1.5,1-3,1.6-4.4c0.1-0.3,0.4-0.4,0.7-0.3c0,0,0,0,0,0c0.1,0,0.1,0.1,0.2,0.1l4.6,2.9
		c0.3,0.2,0.4,0.6,0.2,0.9c0,0,0,0,0,0l0,0c-0.5,1.2-1,2.3-1.5,3.5c-0.2,0.5-0.5,0.5-0.9,0.3c-1.5-0.7-3-1.5-4.4-2.2
		C80.5,76.1,80.3,75.8,80.3,75.5z"/>
	<path class="st6" d="M111.7,80.4c0,0.2-0.1,0.4-0.2,0.5c-0.7,0.9-1.4,1.8-2.1,2.8c-0.4,0.5-0.7,0.5-1.2,0.1
		c-1.2-1.1-2.3-2.2-3.5-3.2c-0.3-0.2-0.4-0.7-0.2-1c0,0,0,0,0,0l0.1-0.1c0.8-1,1.5-2.1,2.3-3.1c0.2-0.3,0.5-0.4,0.8-0.2
		c0.1,0,0.1,0.1,0.2,0.2c1.2,1.2,2.4,2.4,3.5,3.7C111.6,80,111.7,80.2,111.7,80.4z"/>
	<path class="st6" d="M125.8,79.9c0,0.3-0.2,0.5-0.4,0.6c-1.2,1.1-2.3,2.2-3.5,3.2c-0.4,0.4-0.8,0.4-1.1-0.1c-0.7-1-1.4-1.9-2.1-2.8
		c-0.3-0.3-0.3-0.7,0-1c0,0,0,0,0,0l0,0l3.5-3.7c0.3-0.3,0.7-0.4,0.9,0c0.8,1.1,1.6,2.2,2.4,3.4C125.7,79.7,125.8,79.8,125.8,79.9z"
		/>
	<path class="st6" d="M163.5,77.7c0,2.3,0,2.3-2.2,3c-1.3,0.4-2.6,0.9-3.8,1.4c-0.8,0.3-1,0.2-1.2-0.7c-0.1-0.7-0.2-1.3-0.4-2
		c-0.2-0.4,0-0.8,0.4-1l0,0c2-0.9,4.1-1.8,6.1-2.6c0.6-0.2,0.9,0,1,0.7C163.5,76.9,163.5,77.3,163.5,77.7z"/>
	<path class="st6" d="M66.7,77.8c0-2.1-0.1-2.6,2-1.6c1.6,0.8,3.3,1.4,5,2.2c0.6,0.2,0.8,0.5,0.6,1.2c-0.2,0.7-0.3,1.5-0.4,2.2
		c-0.1,0.5-0.4,0.7-0.8,0.5l-5.7-2c-0.3-0.1-0.5-0.4-0.5-0.7C66.8,78.8,66.7,78.2,66.7,77.8z"/>
	<path class="st6" d="M139.9,80.9c0,0.3-0.2,0.5-0.5,0.7c-1.5,0.9-3.1,1.8-4.6,2.8c-0.2,0.2-0.6,0.2-0.8,0c0,0,0,0,0,0
		c-0.1-0.1-0.1-0.2-0.1-0.2c-0.4-0.8-0.8-1.6-1.2-2.4c-0.2-0.3-0.1-0.7,0.2-0.9l4.6-3.5c0.3-0.2,0.7-0.3,0.9,0.1
		C139,78.6,139.5,79.7,139.9,80.9z"/>
	<path class="st6" d="M90.4,80.8c0.4-1.1,0.8-2.2,1.4-3.3c0.1-0.3,0.4-0.4,0.7-0.3c0,0,0,0,0,0c0.1,0,0.1,0.1,0.2,0.1
		c1.6,1.2,3.2,2.4,4.8,3.6c0.3,0.2,0.3,0.6,0.1,0.8c-0.4,0.8-0.8,1.5-1.2,2.3c-0.1,0.3-0.4,0.5-0.7,0.4c-0.1,0-0.2-0.1-0.3-0.2
		l-4.6-2.8C90.5,81.4,90.3,81.1,90.4,80.8z"/>
	<path class="st6" d="M115,84.6c0.3,0,0.5,0.1,0.6,0.4c0.6,0.9,1.3,1.8,1.9,2.7c0.2,0.2,0.2,0.6,0,0.8c-0.6,0.8-1.2,1.5-1.9,2.3
		c-0.4,0.4-0.7,0.5-1.1,0c-0.6-0.8-1.2-1.5-1.8-2.3c-0.2-0.2-0.3-0.5-0.1-0.8c0.7-1,1.4-2,2.1-2.9C114.8,84.7,114.9,84.6,115,84.6z"
		/>
	<path class="st6" d="M129.8,87.1c0.1,0.3,0,0.7-0.3,0.8l-3.6,2.8c-0.5,0.4-0.8,0.3-1-0.2c-1-2.1-1.2-1.5,0.5-3.1
		c0.8-0.8,1.6-1.6,2.5-2.3c0.6-0.6,0.9-0.5,1.3,0.2S129.6,86.6,129.8,87.1z"/>
	<path class="st6" d="M151.7,83.8c0,0.4-0.2,0.7-0.6,0.8l-3.9,1.7c-0.6,0.2-0.9,0.1-1-0.5v-0.1c-0.4-2.5-0.9-1.9,1.5-3.2
		c0.9-0.5,1.8-0.9,2.7-1.4c0.5-0.3,0.8-0.1,0.9,0.4C151.5,82.3,151.6,83.1,151.7,83.8z"/>
	<path class="st6" d="M84.3,84c-0.1,0.7-0.2,1.3-0.4,2c-0.1,0.4-0.4,0.6-0.8,0.4l-4-1.8c-0.1,0-0.2-0.1-0.3-0.2
		c-0.4-0.3,0-3,0.4-3.2c0.2-0.1,0.4-0.1,0.5,0l4.2,2.2C84.2,83.5,84.4,83.8,84.3,84z"/>
	<path class="st6" d="M106.1,89c-0.3,0.7-0.6,1.3-1,1.9c-0.2,0.2-0.5,0.2-0.7,0l-3.9-3c-0.2-0.2-0.3-0.5-0.2-0.8
		c0.3-0.6,0.5-1.2,0.8-1.8s0.6-0.6,1.1-0.2l3.5,3.3C106,88.5,106.1,88.7,106.1,89z"/>
	<path class="st6" d="M141.6,88.5c0,0.3-0.1,0.6-0.4,0.7l-4.1,2.2c-0.4,0.2-0.7,0.1-0.9-0.4c-0.5-1.3-0.4-1.6,0.7-2.3s2.2-1.4,3.4-2
		c0.7-0.4,1-0.3,1.1,0.6C141.6,87.7,141.6,88.1,141.6,88.5z"/>
	<path class="st6" d="M88.6,88.6v-0.2c0.3-2.2,0.3-2.2,2.2-1.1c1,0.6,1.9,1.2,2.9,1.8c0.6,0.7,0.6,1.7,0.1,2.4
		c-0.2,0.2-0.5,0.2-0.7,0l-4-2.1C88.7,89.2,88.5,88.9,88.6,88.6z"/>
	<path class="st6" d="M109,94.7c0.1-0.5,0.3-0.9,0.6-1.3c0.1-0.2,0.4-0.3,0.6-0.2c0.1,0,0.2,0.1,0.2,0.2c0.6,0.8,1.1,1.5,1.7,2.3
		c0,0.8-0.2,1.7-0.6,2.4c-0.2,0.2-0.4,0.2-0.6,0V98c-0.6-1-1.2-2-1.8-3C109,94.9,109,94.8,109,94.7z"/>
	<path class="st6" d="M121.3,94.8c0,0.1-0.1,0.3-0.2,0.4c-0.5,0.8-1,1.6-1.5,2.4c-0.2,0.2-0.3,0.6-0.6,0.5s-0.5-0.4-0.5-0.7
		c-0.1-0.6-0.6-1.1-0.3-1.7c0.5-0.9,1.1-1.7,1.8-2.5c0.1-0.2,0.4-0.2,0.6-0.1c0,0,0,0,0,0c0.1,0,0.1,0.1,0.1,0.2
		C121,93.8,121.2,94.3,121.3,94.8z"/>
	<path class="st6" d="M131.8,94.1c0.1,0.3-0.1,0.6-0.4,0.8c-1.1,0.7-2.2,1.4-3.3,2.1c-0.3,0.2-0.6,0.4-0.9,0c-0.3-0.3-0.2-0.7,0-1
		c0,0,0,0,0,0l0,0c1.1-1.1,2.3-2,3.6-2.9C131.4,92.7,131.7,93.1,131.8,94.1z"/>
	<path class="st6" d="M98.5,94.1c0.1-0.4,0-0.9,0.4-1.1s0.7,0.2,1,0.4c1,0.8,2,1.6,2.9,2.5c0.4,0.3,0.5,0.7,0.2,1.1
		s-0.7,0.2-1.1-0.1L99,95C98.7,94.8,98.4,94.6,98.5,94.1z"/>
</g>
</svg>
