<svg xmlns="http://www.w3.org/2000/svg" xmlns:xlink="http://www.w3.org/1999/xlink" id="Capa_1" x="0px" y="0px" viewBox="0 0 336.3 83.4" style="enable-background:new 0 0 336.3 83.4;" xml:space="preserve"><style type="text/css">	.st0{fill:#FFFFFF;}</style><g>	<g>		<path class="st0" d="M119.5,37.8l-4.2,11.7c-0.2,0.8-0.6,1.4-1.1,2c-0.7,0.5-1.4,0.7-2.3,0.6c-0.8,0.1-1.6-0.2-2.3-0.6   c-0.5-0.5-0.9-1.2-1.1-2l-4.2-11.7c-0.2-0.5-0.3-0.7-0.5-0.7c-0.2,0-0.3,0.2-0.3,0.7l0.2,14.2h-5.2V34.4c0-0.5,0.2-1.1,0.4-1.6   s0.6-0.8,1.1-1c0.5-0.2,0.8-0.3,1.3-0.5c0.5-0.1,0.9-0.2,1.3-0.2c2-0.2,3.9,1.1,4.5,3l4.2,11.8c0.2,0.5,0.4,0.8,0.6,0.8   c0.2,0,0.4-0.3,0.6-0.8l4.2-11.8c0.6-1.9,2.4-3.2,4.4-3c2.8,0,4.2,1.1,4.2,3.2v17.5h-5.1l0.2-14.2c0-0.5-0.1-0.7-0.3-0.7   C119.7,37,119.7,37.3,119.5,37.8z"></path>		<path class="st0" d="M134.9,47.1c0.9,0.8,2,1.1,3.2,1.1c1.1,0.1,2.3-0.3,3.2-1.1c0.8-0.9,1.1-2,1.1-3.2V31.5h5.2v12.6   c0,3-0.8,5-2.3,6.2c-1.6,1.2-3.9,1.8-7.1,1.8c-3.2,0-5.5-0.6-7.1-1.8c-1.6-1.2-2.3-3.3-2.3-6.2V31.5h5.2v12.4   C133.7,45.1,134.1,46.2,134.9,47.1z"></path>		<path class="st0" d="M168,51.9h-14.1c-2,0-3.1-1.1-3.1-3.1V31.5h5.2v15c-0.1,0.4,0.1,0.8,0.3,1.1c0.3,0.2,0.7,0.4,1.1,0.3h10.5   L168,51.9z"></path>		<path class="st0" d="M177.3,51.9h-5.2V35.6h-7.6v-4.1H185v4.1h-7.6L177.3,51.9L177.3,51.9z"></path>		<path class="st0" d="M191.8,51.9h-5.2V31.5h5.2V51.9z"></path>		<path class="st0" d="M212.1,51.9h-14c-1.5,0.2-2.9-0.8-3.2-2.3c-0.1-0.3-0.1-0.6,0-0.9V31.5h5.3v15c-0.1,0.4,0.1,0.8,0.3,1.1   c0.3,0.2,0.7,0.4,1.1,0.3h10.5V51.9z"></path>		<path class="st0" d="M218.9,51.9h-5.2V31.5h5.2V51.9z"></path>		<path class="st0" d="M243.3,37.8L239,49.5c-0.2,0.8-0.6,1.4-1.1,2c-0.7,0.5-1.4,0.7-2.3,0.6c-0.8,0.1-1.6-0.2-2.3-0.6   c-0.5-0.5-0.9-1.2-1.1-2L228,37.8c-0.2-0.5-0.3-0.7-0.5-0.7s-0.3,0.2-0.3,0.7l0.2,14.2h-5.2V34.4c0-0.5,0.2-1.1,0.4-1.6   s0.6-0.8,1.1-1c0.5-0.2,0.8-0.3,1.3-0.5c0.5-0.1,0.9-0.2,1.4-0.2c2-0.2,3.9,1.1,4.5,3L235,46c0.2,0.5,0.4,0.8,0.6,0.8   s0.4-0.3,0.6-0.8l4.2-11.8c0.6-1.9,2.4-3.2,4.4-3c2.8,0,4.2,1.1,4.2,3.2v17.5h-5.1l0.2-14.2c0-0.5-0.1-0.7-0.3-0.7   C243.5,37,243.5,37.3,243.3,37.8z"></path>		<path class="st0" d="M257.6,51.9h-5.2V34.6c0-2.1,1.1-3.2,3.1-3.2h10.8c1,0,1.9,0.2,2.8,0.5c0.7,0.3,1.3,0.8,1.7,1.4   c0.4,0.7,0.7,1.4,0.8,2.1c0.2,0.9,0.2,1.9,0.2,2.8c0.2,1.8-0.3,3.6-1.2,5.2c-0.8,1.2-2.3,1.8-4.3,1.8h-8.7V51.9z M257.6,41.3h6   c0.8,0.1,1.6-0.2,2.3-0.7c0.5-0.6,0.7-1.4,0.6-2.3c0.1-0.8-0.2-1.6-0.6-2.2c-0.6-0.5-1.4-0.8-2.3-0.6h-4.6   c-0.6-0.2-1.2,0.2-1.4,0.8c0,0.2,0,0.3,0,0.5V41.3z"></path>		<path class="st0" d="M273.8,51.9v-4.1h11.4c0.4,0,0.7-0.1,1-0.3c0.2-0.2,0.3-0.3,0.4-0.5c0.1-0.2,0.1-0.4,0.1-0.6   c0-0.8-0.5-1.4-1.6-1.7l-8-2.4c-1.1-0.3-2.1-1-2.6-2c-0.5-1.1-0.8-2.4-0.8-3.7c0-3.4,1.6-5.1,4.8-5.1h12.6v4.1h-10.6   c-1,0-1.4,0.5-1.4,1.4c0,0.8,0.5,1.4,1.7,1.7l7.2,2.1c1.3,0.3,2.4,1,3.3,2c0.7,1.1,1.1,2.5,1,3.8c0,3.6-1.6,5.5-4.7,5.5   L273.8,51.9L273.8,51.9z"></path>		<path class="st0" d="M292.5,51.9l7.6-18.2c0.2-0.8,0.8-1.4,1.4-1.8c0.8-0.5,1.7-0.6,2.6-0.5c0.8-0.1,1.7,0.1,2.5,0.5   c0.8,0.5,1.3,1.1,1.5,1.9l7.6,18.3h-5.5l-1.8-4.7h-8.6L298,52L292.5,51.9L292.5,51.9z M303.7,36.9l-2.6,6.5h6.1l-2.6-6.5   c-0.2-0.5-0.3-0.6-0.4-0.6C304,36.2,303.9,36.3,303.7,36.9L303.7,36.9z"></path>		<path class="st0" d="M333.8,51.9h-8.7c-3.3,0-5.5-0.8-6.8-2.6c-1.3-1.7-2-4.2-2-7.6c0-3.4,0.7-6,2-7.6c1.3-1.7,3.6-2.6,6.8-2.6   h8.4v4.1h-5.8c-2.3,0-3.9,0.4-4.8,1.2c-0.8,0.8-1.2,2.4-1.2,4.9c0,2.4,0.4,4.1,1.2,4.9s2.4,1.2,4.8,1.2h6.1V51.9z"></path>	</g>	<g>		<path class="st0" d="M43.5,3.1c0.2,0,0.3,0.1,0.5,0.3c2.1,1.8,4.1,3.6,6.1,5.5c0.4,0.4,0.4,0.7-0.1,1c-2,1.5-4,3.1-5.9,4.8   c-0.2,0.3-0.7,0.4-1,0.1c-0.1,0-0.1-0.1-0.1-0.1c-1.9-1.6-3.8-3.2-5.8-4.8c-0.6-0.4-0.6-0.6-0.1-1.1C39,7,41,5.2,43,3.4   C43.1,3.2,43.3,3.1,43.5,3.1z"></path>		<path class="st0" d="M33.4,12.3c0.1,0.1,0.2,0.2,0.3,0.2c2.1,1.6,4.1,3.2,6,4.9c0.4,0.4,0.4,0.6,0,1c-1.7,1.7-3.5,3.3-5.2,5   c-0.2,0.3-0.6,0.3-0.9,0.1c0,0,0,0-0.1-0.1c-1.9-1.3-3.9-2.8-5.8-4.2c-0.4-0.3-0.4-0.6-0.1-0.9l5.5-5.7   C33.2,12.5,33.3,12.4,33.4,12.3z"></path>		<path class="st0" d="M53.5,12.4c0.2,0,0.3,0.2,0.4,0.3c1.8,1.9,3.6,3.7,5.4,5.6c0.4,0.4,0.3,0.7-0.1,1c-2,1.4-3.9,2.9-5.8,4.4   c-0.2,0.2-0.6,0.3-0.9,0c0,0,0,0-0.1-0.1c-1.7-1.7-3.5-3.4-5.3-5.1c-0.4-0.4-0.4-0.6,0-1c2-1.7,4-3.4,6.1-5   C53.3,12.5,53.4,12.4,53.5,12.4z"></path>		<path class="st0" d="M25.6,33c-0.2,0-0.4-0.1-0.5-0.3c-1.9-1.3-3.7-2.6-5.6-3.9c-0.5-0.3-0.5-0.6-0.2-1.1c1.6-1.8,3.1-3.7,4.7-5.5   c0.3-0.3,0.4-0.3,0.8-0.1c2,1.5,4.1,3,6.1,4.5c0.3,0.2,0.3,0.4,0.1,0.7c-1.7,1.7-3.3,3.5-4.8,5.4C25.9,32.9,25.7,33,25.6,33z"></path>		<path class="st0" d="M62.6,21.9c0.2,0,0.3,0.2,0.4,0.3c1.6,1.8,3.2,3.7,4.7,5.6c0.4,0.4,0.3,0.7-0.2,1c-1.9,1.3-3.7,2.6-5.6,3.9   c-0.3,0.3-0.7,0.3-1,0c-0.1,0-0.1-0.1-0.1-0.2c-1.5-1.8-3.1-3.5-4.7-5.2c-0.2-0.3-0.3-0.4,0-0.7c2-1.6,4-3.1,6.1-4.6   C62.4,22.1,62.5,22,62.6,21.9z"></path>		<path class="st0" d="M43.5,21c0.2,0,0.4,0.1,0.5,0.3c1.7,1.6,3.3,3.2,5,4.7c0.4,0.4,0.4,0.7,0,1.1c-1.7,1.4-3.3,2.8-4.9,4.2   c-0.4,0.4-0.7,0.4-1.2,0c-1.6-1.4-3.2-2.8-4.9-4.2c-0.6-0.5-0.6-0.6-0.1-1.2c1.6-1.6,3.3-3.2,4.9-4.7C43.1,21.1,43.3,21,43.5,21z"></path>		<path class="st0" d="M40.1,34.7c0,0.2-0.1,0.4-0.3,0.6c-1.6,1.5-3.1,3-4.6,4.6c-0.2,0.3-0.6,0.4-0.8,0.2L34.3,40   c-1.5-1.3-3.1-2.5-4.7-3.7c-0.4-0.3-0.5-0.6-0.1-1c1.5-1.7,2.9-3.4,4.5-5c0.2-0.3,0.6-0.3,0.9-0.1c0.1,0,0.1,0.1,0.1,0.1   c1.6,1.4,3.2,2.8,4.8,4.2C40,34.4,40.1,34.6,40.1,34.7z"></path>		<path class="st0" d="M57.7,35.6c0,0.3-0.2,0.4-0.3,0.5c-1.6,1.2-3.1,2.5-4.7,3.7c-0.2,0.3-0.6,0.3-0.9,0.1l-0.1-0.1   c-1.5-1.5-3-3-4.6-4.6c-0.4-0.3-0.4-0.7,0-1c1.7-1.4,3.3-2.8,4.9-4.2c0.2-0.2,0.6-0.3,0.8-0.1l0.1,0.1l4.5,5.1   C57.6,35.3,57.7,35.5,57.7,35.6z"></path>		<path class="st0" d="M70.7,31.8c0.2,0,0.3,0.2,0.4,0.3c1.3,1.7,2.5,3.4,3.6,5.2c0.3,0.4,0.2,0.7-0.2,0.9c-2,1.1-4,2.3-5.9,3.6   c-0.2,0.2-0.5,0.2-0.7,0l-0.1-0.1L64.4,37c-0.2-0.2-0.2-0.5,0-0.7l0.1-0.1c2-1.5,4-2.9,6.1-4.2C70.5,31.9,70.6,31.8,70.7,31.8z"></path>		<path class="st0" d="M22.8,36.5c0,0.2-0.1,0.3-0.2,0.5c-1.1,1.5-2.2,3-3.2,4.5c-0.3,0.4-0.6,0.4-1,0.2c-1.9-1.2-3.8-2.3-5.7-3.5   c-0.6-0.4-0.7-0.5-0.2-1.1c1.1-1.7,2.3-3.3,3.5-4.9c0.2-0.3,0.4-0.4,0.7-0.2c1.9,1.4,3.9,2.8,5.9,4.1   C22.6,36.2,22.7,36.3,22.8,36.5z"></path>		<path class="st0" d="M43.5,47.8c-0.2,0-0.3-0.1-0.5-0.2c-1.5-1.3-2.9-2.7-4.4-4c-0.4-0.4-0.4-0.7,0-1.1c1.5-1.5,3-2.9,4.4-4.4   c0.2-0.3,0.5-0.3,0.8-0.1c0.1,0,0.1,0.1,0.1,0.1c1.5,1.5,3,2.9,4.5,4.4c0.4,0.4,0.4,0.7,0,1c-1.5,1.3-3,2.7-4.5,4.1   C43.8,47.7,43.7,47.9,43.5,47.8z"></path>		<path class="st0" d="M9.8,41.4c0.1,0.1,0.3,0.1,0.4,0.2c1.9,1.2,3.8,2.3,5.7,3.5c0.5,0.3,0.6,0.6,0.3,1.1   c-0.7,1.3-1.5,2.6-2.2,3.9c-0.3,0.5-0.6,0.6-1.1,0.3C11,49.3,9,48.3,7.1,47.3c-0.4-0.2-0.5-0.4-0.3-0.8c0.8-1.6,1.6-3.2,2.5-4.7   C9.5,41.7,9.6,41.4,9.8,41.4z"></path>		<path class="st0" d="M80.2,46.9c0,0.2-0.2,0.2-0.3,0.3c-2.1,1-4.1,2.1-6.1,3.3c-0.4,0.2-0.7,0.2-0.9-0.3c-0.7-1.4-1.5-2.8-2.3-4.1   c-0.2-0.2-0.2-0.6,0.1-0.8c0.1,0,0.1-0.1,0.2-0.1c2-1.2,4-2.4,5.9-3.6c0.2-0.1,0.4-0.3,0.6,0.1C78.4,43.4,79.3,45.1,80.2,46.9   C80.2,46.8,80.2,46.9,80.2,46.9z"></path>		<path class="st0" d="M59.1,48.1c-0.2,0-0.4-0.1-0.5-0.3c-1.1-1.3-2.2-2.6-3.2-3.9c-0.2-0.2-0.2-0.5-0.1-0.7l0.1-0.1l4.6-3.7   c0.2-0.2,0.6-0.2,0.8,0c0,0,0.1,0.1,0.1,0.2l3.1,4.3c0.3,0.4,0.2,0.6-0.2,0.9L59.3,48C59.4,48,59.3,48,59.1,48.1z"></path>		<path class="st0" d="M27.8,48c-0.1-0.1-0.3-0.1-0.4-0.2c-1.4-1-2.8-2-4.3-3c-0.5-0.3-0.5-0.6-0.2-1.1c1-1.3,1.9-2.7,2.9-4   c0.5-0.6,0.6-0.6,1.2-0.2l4.2,3.3c0.6,0.5,0.6,0.6,0.1,1.2l-3,3.6C28.3,47.9,28,48,27.8,48z"></path>		<path class="st0" d="M83.7,56.3c0,0.3-0.2,0.6-0.5,0.7c-1.9,0.8-3.7,1.6-5.6,2.4c-0.5,0.2-0.8,0.1-1-0.4c-0.4-1.2-0.8-2.5-1.4-3.7   c-0.2-0.5-0.1-0.8,0.3-1c1.9-1,3.8-2,5.7-3c0.3-0.2,0.7-0.3,0.8,0.2C82.8,53,83.3,54.6,83.7,56.3z"></path>		<path class="st0" d="M5.3,51.1l0.4,0.2c1.9,1,3.7,2,5.6,3c0.4,0.1,0.6,0.5,0.4,0.9c0,0,0,0.1-0.1,0.1c-0.5,1.2-0.9,2.4-1.3,3.6   c-0.2,0.7-0.4,0.7-1,0.5c-1.8-0.8-3.6-1.6-5.4-2.3c-0.4-0.1-0.6-0.5-0.6-0.9c0-0.1,0-0.1,0.1-0.2c0.4-1.5,0.8-2.9,1.3-4.4   C4.8,51.4,4.9,51.1,5.3,51.1z"></path>		<path class="st0" d="M50.4,55c-0.2,0-0.4-0.1-0.5-0.3c-1-1.1-2-2.2-3.1-3.3c-0.3-0.2-0.3-0.5-0.1-0.8c0-0.1,0.1-0.1,0.1-0.1   c1.4-1.3,2.9-2.6,4.3-3.9c0.2-0.3,0.6-0.3,0.8-0.1c0.1,0.1,0.1,0.1,0.2,0.2c1,1.2,2,2.4,3,3.6c0.2,0.2,0.3,0.6,0.1,0.8l-0.1,0.1   l-4.3,3.6C50.7,54.9,50.6,55,50.4,55z"></path>		<path class="st0" d="M36.5,55c-0.2,0-0.4-0.1-0.5-0.3c-1.4-1.2-2.8-2.4-4.2-3.5c-0.4-0.3-0.4-0.6-0.1-1c1-1.2,2-2.4,3.1-3.7   c0.2-0.3,0.5-0.3,0.8-0.2c0.1,0,0.1,0.1,0.1,0.1l4.3,3.9c0.3,0.2,0.4,0.6,0.2,0.8c0,0.1-0.1,0.1-0.2,0.2c-1,1-2,2.1-2.9,3.2   C36.9,54.8,36.8,55,36.5,55z"></path>		<path class="st0" d="M69.5,52.7c0,0.2-0.2,0.4-0.4,0.6L65,55.8c-0.2,0.2-0.6,0.2-0.8-0.1l-0.1-0.1c-0.8-1.2-1.5-2.3-2.3-3.5   c-0.2-0.2-0.2-0.6,0-0.8l0.1-0.1c1.4-1,2.8-2,4.2-3c0.2-0.2,0.5-0.2,0.7,0c0.1,0,0.1,0.1,0.1,0.2c0.8,1.4,1.6,2.8,2.3,4.2   C69.5,52.6,69.5,52.7,69.5,52.7z"></path>		<path class="st0" d="M22.2,56c-0.1-0.1-0.3-0.1-0.4-0.2c-1.3-0.8-2.5-1.6-3.8-2.4c-0.4-0.1-0.6-0.5-0.5-0.9c0-0.1,0.1-0.2,0.1-0.2   c0.7-1.2,1.4-2.4,2-3.6c0.3-0.5,0.6-0.6,1.1-0.3c1.3,1,2.7,1.9,4,2.8c0.3,0.2,0.5,0.5,0.3,0.9c0,0.1-0.1,0.1-0.1,0.2   c-0.7,1.1-1.4,2.2-2.1,3.3C22.8,55.7,22.6,56,22.2,56z"></path>		<path class="st0" d="M28.8,54.4c0.2,0,0.4,0.1,0.6,0.3c1.3,1.1,2.6,2.2,4,3.3c0.3,0.2,0.4,0.6,0.2,0.9c0,0.1-0.1,0.1-0.1,0.2   c-0.7,0.8-1.3,1.8-2,2.7c-0.3,0.4-0.6,0.5-1,0.2c-1.3-1-2.6-2-3.9-2.9c-0.4-0.3-0.5-0.6-0.2-1c0.7-1,1.3-2.1,2-3.1   C28.4,54.6,28.6,54.4,28.8,54.4z"></path>		<path class="st0" d="M56.1,62.1c-0.2,0-0.5-0.1-0.6-0.3c-0.7-0.9-1.3-1.9-2-2.8c-0.3-0.4-0.3-0.6,0.1-0.9c1.4-1.1,2.8-2.3,4.1-3.4   c0.2-0.2,0.6-0.3,0.8-0.1c0.1,0.1,0.1,0.1,0.2,0.2c0.7,1.1,1.4,2.2,2.1,3.3c0.2,0.2,0.2,0.5,0,0.7c0,0-0.1,0-0.1,0.1l-4.3,3.2   C56.2,62.1,56.2,62.1,56.1,62.1z"></path>		<path class="st0" d="M47.2,58c0,0.2-0.2,0.3-0.3,0.5c-1,1-1.9,2-2.9,3c-0.4,0.4-0.7,0.4-1,0c-0.9-1-1.9-1.9-2.8-2.9   c-0.4-0.4-0.4-0.7-0.1-1.1c1-1,1.9-2.1,2.9-3.1c0.2-0.3,0.5-0.4,0.8-0.2c0.1,0,0.1,0.1,0.2,0.2l2.9,3.1C47,57.6,47.1,57.8,47.2,58   z"></path>		<path class="st0" d="M72.9,61.2c0,0.3-0.2,0.5-0.4,0.6c-1.2,0.6-2.4,1.2-3.6,1.8c-0.4,0.2-0.7,0.1-0.8-0.3c-0.4-1-0.8-1.9-1.2-2.9   c-0.2-0.3-0.1-0.6,0.2-0.8c0,0,0,0,0.1,0l3.8-2.4c0.3-0.2,0.6-0.2,0.8,0.2c0.5,1.2,1,2.5,1.3,3.7C72.9,61.1,72.9,61.1,72.9,61.2z"></path>		<path class="st0" d="M14,61.1c0.4-1.3,0.8-2.5,1.4-3.8c0.1-0.2,0.3-0.4,0.6-0.3c0.1,0,0.1,0,0.1,0.1l3.9,2.5   c0.3,0.2,0.4,0.5,0.2,0.8l0,0c-0.4,1-0.8,2-1.3,3c-0.2,0.4-0.4,0.5-0.8,0.3c-1.3-0.6-2.5-1.2-3.7-1.9C14.1,61.6,14,61.3,14,61.1z"></path>		<path class="st0" d="M40.6,65.2c0,0.2-0.1,0.3-0.2,0.4c-0.6,0.8-1.2,1.5-1.7,2.3c-0.3,0.4-0.6,0.4-1,0.1c-1-0.9-2-1.8-3-2.7   c-0.3-0.2-0.4-0.6-0.2-0.8c0,0,0-0.1,0.1-0.1c0.6-0.8,1.3-1.8,1.9-2.6c0.1-0.2,0.4-0.3,0.7-0.2c0.1,0,0.1,0.1,0.2,0.1   c1,1,2.1,2,3,3.1C40.5,64.9,40.6,65.1,40.6,65.2z"></path>		<path class="st0" d="M52.5,64.8c0,0.2-0.1,0.4-0.3,0.5c-1,0.9-2,1.8-3,2.7c-0.4,0.3-0.6,0.3-0.9-0.1c-0.6-0.8-1.2-1.6-1.8-2.4   c-0.2-0.2-0.2-0.6,0-0.8l0,0l3-3.1c0.3-0.3,0.6-0.3,0.8,0c0.7,0.9,1.4,1.9,2.1,2.8C52.4,64.6,52.5,64.7,52.5,64.8z"></path>		<path class="st0" d="M84.4,63c0,1.9,0,1.9-1.9,2.5c-1.1,0.4-2.2,0.8-3.2,1.2c-0.7,0.2-0.8,0.1-1-0.6c-0.1-0.6-0.2-1.1-0.3-1.7   c-0.1-0.3,0-0.7,0.4-0.8l0,0c1.7-0.7,3.4-1.5,5.2-2.2c0.5-0.2,0.8,0,0.8,0.6C84.4,62.2,84.4,62.6,84.4,63z"></path>		<path class="st0" d="M2.5,63c0-1.7-0.1-2.2,1.7-1.4c1.4,0.6,2.8,1.2,4.2,1.8c0.5,0.2,0.7,0.5,0.5,1c-0.1,0.7-0.3,1.3-0.3,1.9   c-0.1,0.4-0.3,0.6-0.7,0.4c-1.7-0.5-3.3-1.1-4.9-1.6c-0.2-0.1-0.4-0.3-0.4-0.6C2.6,63.9,2.5,63.3,2.5,63z"></path>		<path class="st0" d="M64.4,65.7c0,0.3-0.2,0.4-0.4,0.6c-1.3,0.8-2.6,1.5-3.9,2.3c-0.2,0.2-0.5,0.2-0.7,0c-0.1-0.1-0.1-0.1-0.1-0.2   c-0.3-0.7-0.7-1.3-1-2c-0.2-0.3-0.1-0.6,0.2-0.8l3.9-2.9c0.3-0.2,0.6-0.2,0.8,0.1C63.7,63.7,64.1,64.7,64.4,65.7z"></path>		<path class="st0" d="M22.6,65.5c0.3-0.9,0.7-1.9,1.2-2.8c0.1-0.2,0.4-0.3,0.6-0.3c0.1,0,0.1,0.1,0.1,0.1c1.4,1,2.7,2,4,3   c0.2,0.2,0.3,0.5,0.1,0.7c-0.3,0.7-0.7,1.3-1,2c-0.1,0.3-0.3,0.4-0.6,0.4c-0.1,0-0.2-0.1-0.2-0.1l-3.9-2.4   C22.6,66.1,22.5,65.8,22.6,65.5z"></path>		<path class="st0" d="M43.4,68.8c0.2,0,0.4,0.1,0.5,0.3c0.5,0.8,1.1,1.5,1.6,2.3c0.2,0.2,0.2,0.5,0,0.7c-0.5,0.6-1.1,1.3-1.6,2   c-0.3,0.4-0.6,0.4-0.9,0c-0.5-0.6-1-1.3-1.5-1.9c-0.2-0.2-0.3-0.4-0.1-0.7c0.6-0.8,1.1-1.7,1.8-2.5C43.2,68.9,43.3,68.8,43.4,68.8   z"></path>		<path class="st0" d="M55.9,70.9c0.1,0.3,0,0.6-0.3,0.7l-3,2.4c-0.4,0.3-0.7,0.3-0.8-0.2c-0.8-1.8-1-1.3,0.4-2.6   c0.7-0.7,1.4-1.3,2.1-2c0.5-0.5,0.8-0.4,1.1,0.2C55.6,70,55.8,70.5,55.9,70.9z"></path>		<path class="st0" d="M74.4,68.1c0,0.3-0.2,0.6-0.5,0.7l-3.3,1.5c-0.5,0.2-0.7,0.1-0.8-0.4c0,0,0,0,0-0.1c-0.4-2.1-0.7-1.6,1.3-2.7   c0.8-0.4,1.5-0.8,2.3-1.2c0.4-0.2,0.7-0.1,0.7,0.3C74.3,66.9,74.4,67.5,74.4,68.1z"></path>		<path class="st0" d="M17.4,68.3c-0.1,0.6-0.2,1.1-0.3,1.7c-0.1,0.4-0.3,0.5-0.7,0.3L13,68.8c-0.1,0-0.2-0.1-0.3-0.2   c-0.3-0.3,0-2.5,0.4-2.8c0.1-0.1,0.3-0.1,0.4,0l3.6,1.9C17.3,67.8,17.5,68.1,17.4,68.3z"></path>		<path class="st0" d="M35.9,72.5c-0.2,0.6-0.5,1.1-0.8,1.6c-0.2,0.2-0.4,0.1-0.6,0c-1.1-0.8-2.2-1.7-3.3-2.5   c-0.2-0.2-0.3-0.4-0.1-0.7c0.2-0.5,0.5-1,0.7-1.6s0.5-0.5,0.9-0.2l3,2.8C35.8,72.1,35.9,72.3,35.9,72.5z"></path>		<path class="st0" d="M65.9,72.1c0,0.3-0.1,0.5-0.3,0.6l-3.5,1.9c-0.4,0.2-0.6,0.1-0.8-0.3c-0.4-1.1-0.4-1.3,0.6-1.9   s1.9-1.2,2.8-1.7c0.6-0.4,0.8-0.2,1,0.5C65.8,71.4,65.9,71.8,65.9,72.1z"></path>		<path class="st0" d="M21,72.2c0-0.1,0-0.2,0-0.2c0.2-1.9,0.2-1.9,1.9-0.9c0.8,0.5,1.6,1,2.4,1.5c0.5,0.6,0.5,1.4,0.1,2   c-0.2,0.1-0.4,0.1-0.6,0l-3.4-1.8C21.1,72.7,21,72.4,21,72.2z"></path>		<path class="st0" d="M38.3,77.3c0.1-0.4,0.3-0.8,0.5-1.1c0.1-0.2,0.3-0.3,0.5-0.2c0.1,0,0.1,0.1,0.2,0.2c0.5,0.6,1,1.3,1.4,1.9   c0,0.7-0.2,1.4-0.5,2c-0.1,0.1-0.3,0.1-0.5,0c0,0,0,0,0-0.1c-0.5-0.8-1-1.7-1.5-2.5C38.3,77.5,38.3,77.5,38.3,77.3z"></path>		<path class="st0" d="M48.7,77.4c0,0.1-0.1,0.2-0.1,0.4c-0.5,0.6-0.8,1.4-1.2,2c-0.1,0.2-0.2,0.5-0.5,0.4c-0.3,0-0.4-0.3-0.4-0.6   c-0.1-0.5-0.5-1-0.3-1.4c0.4-0.8,0.9-1.5,1.5-2.1c0.1-0.2,0.3-0.2,0.5-0.1l0.1,0.1C48.4,76.6,48.6,77,48.7,77.4z"></path>		<path class="st0" d="M57.6,76.8c0.1,0.3-0.1,0.5-0.3,0.7c-0.9,0.6-1.8,1.2-2.8,1.8c-0.3,0.2-0.5,0.3-0.8,0c-0.2-0.2-0.2-0.6,0-0.8   l0,0c0.9-0.9,1.9-1.7,3-2.5C57.3,75.6,57.5,76,57.6,76.8z"></path>		<path class="st0" d="M29.4,76.8c0.1-0.3,0-0.7,0.3-0.9c0.3-0.2,0.6,0.2,0.8,0.4c0.8,0.7,1.7,1.4,2.5,2.1c0.3,0.3,0.5,0.6,0.2,0.9   s-0.6,0.1-0.9-0.1l-2.5-1.6C29.6,77.4,29.3,77.2,29.4,76.8z"></path>	</g></g></svg>
